<?xml version="1.0" encoding="UTF-8"?>
<svg width="30px" height="30px" viewBox="0 0 30 30" version="1.1" xmlns="http://www.w3.org/2000/svg" xmlns:xlink="http://www.w3.org/1999/xlink">
    <title>icon/03 forms/disease-tb</title>
    <defs>
        <path d="M26.8684,17.3981 C25.6554,13.6161 21.9404,9.9041 19.3684,9.9041 C18.9724,9.9041 18.6464,10.0331 18.4024,10.2871 C17.7434,10.9721 17.8444,12.4141 17.9514,13.9411 C17.9604,14.0671 17.9304,14.8391 17.9194,15.6561 C16.9814,14.6051 15.8984,12.9451 15.8984,10.8761 L15.8984,6.9191 C15.8984,6.8661 15.8774,6.8201 15.8684,6.7691 L15.8684,3.0001 C15.8684,2.4481 15.4214,2.0001 14.8684,2.0001 C14.3154,2.0001 13.8684,2.4481 13.8684,3.0001 L13.8684,10.8761 C13.8694,13.0251 12.7344,14.6911 11.8154,15.6921 C11.8174,14.8621 11.8074,14.0681 11.8164,13.9401 C11.9244,12.4141 12.0244,10.9721 11.3654,10.2861 C11.1214,10.0331 10.7964,9.9041 10.3984,9.9041 C7.8274,9.9041 4.1124,13.6161 2.8994,17.3981 C1.5624,21.5681 1.8304,26.5261 2.9534,28.0091 C3.2584,28.4121 3.5784,28.4961 3.7934,28.4961 C4.3124,28.4961 4.5514,28.3181 4.9444,28.0231 C5.1284,27.8851 5.3564,27.7141 5.6864,27.5021 C6.3644,27.0651 7.1794,26.7491 7.9674,26.4441 C9.5924,25.8141 11.1274,25.2191 11.1274,23.6681 C11.1274,23.4691 11.1034,23.2271 11.0754,22.9461 C11.0384,22.5731 10.9914,22.1091 10.9914,21.6131 C10.9914,21.2041 11.1744,20.4111 11.3494,19.6441 C11.4444,19.2331 11.5324,18.8401 11.5994,18.4901 C11.6704,18.4611 11.7414,18.4341 11.8064,18.3881 C11.9194,18.3111 13.7264,17.0331 14.8914,14.7831 C16.0984,17.0961 17.9904,18.4561 18.1064,18.5371 C18.1314,18.5531 18.1574,18.5601 18.1824,18.5741 C18.2474,18.9031 18.3304,19.2671 18.4174,19.6441 C18.5934,20.4111 18.7754,21.2041 18.7754,21.6131 C18.7754,22.1091 18.7294,22.5731 18.6914,22.9461 C18.6644,23.2271 18.6394,23.4691 18.6394,23.6681 C18.6394,25.2201 20.1754,25.8141 21.8014,26.4441 C22.5884,26.7491 23.4034,27.0651 24.0814,27.5021 C24.4114,27.7141 24.6394,27.8851 24.8234,28.0231 C25.2174,28.3181 25.4554,28.4961 25.9744,28.4961 C26.1904,28.4961 26.5104,28.4121 26.8144,28.0091 C27.9374,26.5261 28.2054,21.5681 26.8684,17.3981 M23.0588235,14.1764706 C23.0588235,14.8262353 22.5321176,15.3529412 21.8823529,15.3529412 C21.2325882,15.3529412 20.7058824,14.8262353 20.7058824,14.1764706 C20.7058824,13.5267059 21.2325882,13 21.8823529,13 C22.5321176,13 23.0588235,13.5267059 23.0588235,14.1764706 Z M21.8823529,23 C22.5321176,23 23.0588235,22.4732941 23.0588235,21.8235294 C23.0588235,21.1737647 22.5321176,20.6470588 21.8823529,20.6470588 C21.2325882,20.6470588 20.7058824,21.1737647 20.7058824,21.8235294 C20.7058824,22.4732941 21.2325882,23 21.8823529,23 Z M26,20.0588235 C26,20.7085882 25.4732941,21.2352941 24.8235294,21.2352941 C24.1737647,21.2352941 23.6470588,20.7085882 23.6470588,20.0588235 C23.6470588,19.4090588 24.1737647,18.8823529 24.8235294,18.8823529 C25.4732941,18.8823529 26,19.4090588 26,20.0588235 Z M21.2941176,19.4705882 C22.2687647,19.4705882 23.0588235,18.6805294 23.0588235,17.7058824 C23.0588235,16.7312353 22.2687647,15.9411765 21.2941176,15.9411765 C20.3194706,15.9411765 19.5294118,16.7312353 19.5294118,17.7058824 C19.5294118,18.6805294 20.3194706,19.4705882 21.2941176,19.4705882 Z" id="path-1"></path>
    </defs>
    <g id="icon/03-forms/disease-tb" stroke="none" stroke-width="1" fill="none" fill-rule="evenodd">
        <mask id="mask-2" fill="white">
            <use xlink:href="#path-1"></use>
        </mask>
        <use id="respiratory-2" fill="#983916" xlink:href="#path-1"></use>
    </g>
</svg>