<?xml version="1.0" encoding="UTF-8"?>
<svg width="30px" height="30px" viewBox="0 0 30 30" version="1.1" xmlns="http://www.w3.org/2000/svg" xmlns:xlink="http://www.w3.org/1999/xlink">
    <title>icon/03 forms/disease-tb-treatment-end</title>
    <defs>
        <path d="M29.5462357,7.97459155 C28.9342716,6.01590177 27.0600369,4.09346484 25.762451,4.09346484 C25.5626672,4.09346484 25.3981987,4.16027367 25.2750995,4.29181973 C24.942631,4.64657978 24.9935859,5.39338852 25.0475679,6.18421858 C25.0521085,6.24947372 25.0369733,6.64929088 25.0314238,7.07241345 C24.5581985,6.52810277 24.0118199,5.66839229 24.0118199,4.59686158 L24.0118199,2.54753967 C24.0118199,2.52009108 24.0012253,2.49626778 23.9966848,2.46985499 L23.9966848,0.51789788 C23.9966848,0.23201825 23.7711712,2.03392858e-13 23.4921802,2.03392858e-13 C23.2131891,2.03392858e-13 22.9876756,0.23201825 22.9876756,0.51789788 L22.9876756,4.59686158 C22.9881801,5.70982412 22.4155673,6.57264199 21.9519276,7.09105777 C21.9529366,6.66120253 21.9478915,6.24999161 21.9524321,6.18370068 C22.0069186,5.39338852 22.057369,4.64657978 21.7249005,4.29130183 C21.6018013,4.16027367 21.4378373,4.09346484 21.2370445,4.09346484 C19.9399631,4.09346484 18.0657284,6.01590177 17.4537643,7.97459155 C16.7792416,10.1342257 16.9144489,12.7019634 17.4810076,13.470006 C17.6348815,13.6787188 17.796323,13.7222222 17.9047914,13.7222222 C18.1666293,13.7222222 18.287206,13.6300364 18.4854763,13.4772565 C18.5783051,13.4057866 18.6933322,13.3172261 18.8598187,13.2074317 C19.2018728,12.9811104 19.6130441,12.8174546 20.0105938,12.6594958 C20.8304138,12.3332201 21.6048284,12.0250709 21.6048284,11.2218113 C21.6048284,11.1187496 21.5927203,10.9934183 21.5785941,10.847889 C21.5599275,10.6547131 21.5362157,10.4144085 21.5362157,10.1575311 C21.5362157,9.94571088 21.6285401,9.53501786 21.7168284,9.13779019 C21.7647563,8.92493416 21.8091527,8.7214003 21.8429546,8.54013604 C21.8787744,8.525117 21.9145942,8.51113376 21.947387,8.48731045 C22.004396,8.44743232 22.9160359,7.78555883 23.5037838,6.6202886 C24.1127209,7.81818639 25.0672436,8.52252751 25.1257662,8.56447724 C25.1383788,8.5727636 25.1514959,8.57638889 25.1641085,8.58363946 C25.1969013,8.75402786 25.2387752,8.94254269 25.2826671,9.13779019 C25.3714599,9.53501786 25.4632798,9.94571088 25.4632798,10.1575311 C25.4632798,10.4144085 25.4400725,10.6547131 25.4209014,10.847889 C25.4072797,10.9934183 25.3946671,11.1187496 25.3946671,11.2218113 C25.3946671,12.0255888 26.1695862,12.3332201 26.9899107,12.6594958 C27.3869559,12.8174546 27.7981272,12.9811104 28.1401813,13.2074317 C28.3066678,13.3172261 28.4216949,13.4057866 28.5145237,13.4772565 C28.7132985,13.6300364 28.8333707,13.7222222 29.0952086,13.7222222 C29.2041816,13.7222222 29.365623,13.6787188 29.5189924,13.470006 C30.0855511,12.7019634 30.2207584,10.1342257 29.5462357,7.97459155 M27.6242867,6.30611651 C27.6242867,6.64262827 27.3585612,6.91540813 27.0307519,6.91540813 C26.7029426,6.91540813 26.437217,6.64262827 26.437217,6.30611651 C26.437217,5.96960475 26.7029426,5.69682489 27.0307519,5.69682489 C27.3585612,5.69682489 27.6242867,5.96960475 27.6242867,6.30611651 Z M27.0307519,10.8758037 C27.3585612,10.8758037 27.6242867,10.6030238 27.6242867,10.2665121 C27.6242867,9.9300003 27.3585612,9.65722044 27.0307519,9.65722044 C26.7029426,9.65722044 26.437217,9.9300003 26.437217,10.2665121 C26.437217,10.6030238 26.7029426,10.8758037 27.0307519,10.8758037 Z M29.1081239,9.35257463 C29.1081239,9.68908639 28.8423983,9.96186625 28.514589,9.96186625 C28.1867797,9.96186625 27.9210542,9.68908639 27.9210542,9.35257463 C27.9210542,9.01606286 28.1867797,8.743283 28.514589,8.743283 C28.8423983,8.743283 29.1081239,9.01606286 29.1081239,9.35257463 Z M26.7339845,9.04792882 C27.2256984,9.04792882 27.6242867,8.63875903 27.6242867,8.13399138 C27.6242867,7.62922374 27.2256984,7.22005395 26.7339845,7.22005395 C26.2422705,7.22005395 25.8436822,7.62922374 25.8436822,8.13399138 C25.8436822,8.63875903 26.2422705,9.04792882 26.7339845,9.04792882 Z" id="path-1"></path>
        <path d="M11.1381994,20.5875336 C12.1409928,20.1436616 13.3132504,20.6085223 13.7524583,21.6245308 L13.7524583,21.6245308 L13.7835527,21.6976025 C14.2212059,22.7120563 13.7617866,23.8998611 12.7589933,24.3437332 L12.7589933,24.3437332 L9.07197873,25.9746327 C8.81467284,26.0889045 8.54570656,26.1425423 8.28062708,26.1425423 C7.51415093,26.1425423 6.78421067,25.6924514 6.45849717,24.938413 L6.45849717,24.938413 L6.42662545,24.8653412 C5.98819487,23.8501101 6.44761414,22.6630826 7.45040748,22.2184332 L7.45040748,22.2184332 Z M9.58892258,22.4104409 L7.86396256,23.174585 C7.38044516,23.3875814 7.15967515,23.9597178 7.37111685,24.4478993 L7.37111685,24.4478993 L7.40221121,24.5201937 C7.61287555,25.0091526 8.17801567,25.2322547 8.65997836,25.0192583 L8.65997836,25.0192583 L10.3864931,24.2558916 L9.58892258,22.4104409 Z M9.02284963,14.5354038 C9.77766539,13.7331691 11.0362099,13.7020747 11.8291163,14.4654414 L11.8291163,14.4654414 L11.8866408,14.5206339 C12.2691016,14.8891022 12.4867621,15.3889441 12.4999772,15.9268767 C12.512415,16.4655866 12.3188525,16.9747569 11.9550484,17.3618817 L11.9550484,17.3618817 L9.17987618,20.3119598 C8.81529473,20.6990847 8.32322637,20.9198547 7.79073533,20.9330698 C7.77441079,20.9330698 7.75730889,20.9338472 7.74098434,20.9338472 C7.22714993,20.9338472 6.74363252,20.73873 6.37360955,20.3819221 L6.37360955,20.3819221 L6.31686233,20.3259523 C5.93362426,19.9582614 5.71596369,19.4584194 5.70352594,18.9204869 C5.69031083,18.381777 5.88387327,17.8726067 6.24845472,17.4854818 L6.24845472,17.4854818 Z M10.436866,14.9544004 C10.1811148,14.9613966 9.94479761,15.0678948 9.76833708,15.254461 L9.76833708,15.254461 L8.46936989,16.6350509 L9.91059381,18.0241918 L11.209561,16.6428245 C11.3844668,16.4562583 11.4777499,16.2106128 11.471531,15.9517522 C11.4660895,15.6936689 11.3603687,15.4542423 11.1761345,15.2754497 L11.1761345,15.2754497 L11.11861,15.2210346 C10.9343758,15.0430193 10.698836,14.9466268 10.436866,14.9544004 Z" id="path-3"></path>
    </defs>
    <g id="icon/03-forms/disease-tb-treatment-end" stroke="none" stroke-width="1" fill="none" fill-rule="evenodd">
        <mask id="mask-2" fill="white">
            <use xlink:href="#path-1"></use>
        </mask>
        <use id="tb" fill="#983916" xlink:href="#path-1"></use>
        <mask id="mask-4" fill="white">
            <use xlink:href="#path-3"></use>
        </mask>
        <use id="medicine" fill="#983916" xlink:href="#path-3"></use>
        <circle id="Oval" stroke="#983916" stroke-width="1.5" cx="9.5" cy="20.5" r="8.75"></circle>
        <line x1="3.5" y1="14.5" x2="15.5" y2="26.5" id="Line-2" stroke="#983916" stroke-width="1.5" stroke-linecap="square"></line>
    </g>
</svg>