<?xml version="1.0" encoding="UTF-8"?>
<svg width="30px" height="30px" viewBox="0 0 30 30" version="1.1" xmlns="http://www.w3.org/2000/svg" xmlns:xlink="http://www.w3.org/1999/xlink">
    <title>icon/03 forms/disease-tb-referral-follow-up</title>
    <defs>
        <path d="M29.5462357,7.97459155 C28.9342716,6.01590177 27.0600369,4.09346484 25.762451,4.09346484 C25.5626672,4.09346484 25.3981987,4.16027367 25.2750995,4.29181973 C24.942631,4.64657978 24.9935859,5.39338852 25.0475679,6.18421858 C25.0521085,6.24947372 25.0369733,6.64929088 25.0314238,7.07241345 C24.5581985,6.52810277 24.0118199,5.66839229 24.0118199,4.59686158 L24.0118199,2.54753967 C24.0118199,2.52009108 24.0012253,2.49626778 23.9966848,2.46985499 L23.9966848,0.51789788 C23.9966848,0.23201825 23.7711712,2.03392858e-13 23.4921802,2.03392858e-13 C23.2131891,2.03392858e-13 22.9876756,0.23201825 22.9876756,0.51789788 L22.9876756,4.59686158 C22.9881801,5.70982412 22.4155673,6.57264199 21.9519276,7.09105777 C21.9529366,6.66120253 21.9478915,6.24999161 21.9524321,6.18370068 C22.0069186,5.39338852 22.057369,4.64657978 21.7249005,4.29130183 C21.6018013,4.16027367 21.4378373,4.09346484 21.2370445,4.09346484 C19.9399631,4.09346484 18.0657284,6.01590177 17.4537643,7.97459155 C16.7792416,10.1342257 16.9144489,12.7019634 17.4810076,13.470006 C17.6348815,13.6787188 17.796323,13.7222222 17.9047914,13.7222222 C18.1666293,13.7222222 18.287206,13.6300364 18.4854763,13.4772565 C18.5783051,13.4057866 18.6933322,13.3172261 18.8598187,13.2074317 C19.2018728,12.9811104 19.6130441,12.8174546 20.0105938,12.6594958 C20.8304138,12.3332201 21.6048284,12.0250709 21.6048284,11.2218113 C21.6048284,11.1187496 21.5927203,10.9934183 21.5785941,10.847889 C21.5599275,10.6547131 21.5362157,10.4144085 21.5362157,10.1575311 C21.5362157,9.94571088 21.6285401,9.53501786 21.7168284,9.13779019 C21.7647563,8.92493416 21.8091527,8.7214003 21.8429546,8.54013604 C21.8787744,8.525117 21.9145942,8.51113376 21.947387,8.48731045 C22.004396,8.44743232 22.9160359,7.78555883 23.5037838,6.6202886 C24.1127209,7.81818639 25.0672436,8.52252751 25.1257662,8.56447724 C25.1383788,8.5727636 25.1514959,8.57638889 25.1641085,8.58363946 C25.1969013,8.75402786 25.2387752,8.94254269 25.2826671,9.13779019 C25.3714599,9.53501786 25.4632798,9.94571088 25.4632798,10.1575311 C25.4632798,10.4144085 25.4400725,10.6547131 25.4209014,10.847889 C25.4072797,10.9934183 25.3946671,11.1187496 25.3946671,11.2218113 C25.3946671,12.0255888 26.1695862,12.3332201 26.9899107,12.6594958 C27.3869559,12.8174546 27.7981272,12.9811104 28.1401813,13.2074317 C28.3066678,13.3172261 28.4216949,13.4057866 28.5145237,13.4772565 C28.7132985,13.6300364 28.8333707,13.7222222 29.0952086,13.7222222 C29.2041816,13.7222222 29.365623,13.6787188 29.5189924,13.470006 C30.0855511,12.7019634 30.2207584,10.1342257 29.5462357,7.97459155 M27.6242867,6.30611651 C27.6242867,6.64262827 27.3585612,6.91540813 27.0307519,6.91540813 C26.7029426,6.91540813 26.437217,6.64262827 26.437217,6.30611651 C26.437217,5.96960475 26.7029426,5.69682489 27.0307519,5.69682489 C27.3585612,5.69682489 27.6242867,5.96960475 27.6242867,6.30611651 Z M27.0307519,10.8758037 C27.3585612,10.8758037 27.6242867,10.6030238 27.6242867,10.2665121 C27.6242867,9.9300003 27.3585612,9.65722044 27.0307519,9.65722044 C26.7029426,9.65722044 26.437217,9.9300003 26.437217,10.2665121 C26.437217,10.6030238 26.7029426,10.8758037 27.0307519,10.8758037 Z M29.1081239,9.35257463 C29.1081239,9.68908639 28.8423983,9.96186625 28.514589,9.96186625 C28.1867797,9.96186625 27.9210542,9.68908639 27.9210542,9.35257463 C27.9210542,9.01606286 28.1867797,8.743283 28.514589,8.743283 C28.8423983,8.743283 29.1081239,9.01606286 29.1081239,9.35257463 Z M26.7339845,9.04792882 C27.2256984,9.04792882 27.6242867,8.63875903 27.6242867,8.13399138 C27.6242867,7.62922374 27.2256984,7.22005395 26.7339845,7.22005395 C26.2422705,7.22005395 25.8436822,7.62922374 25.8436822,8.13399138 C25.8436822,8.63875903 26.2422705,9.04792882 26.7339845,9.04792882 Z" id="path-1"></path>
        <path d="M9.0471,9.71505 C9.7081,9.63405 10.4221,9.67605 11.0131,10.01205 C11.7421,10.42705 11.8941,11.29305 12.1501,12.01905 L12.1501,12.01905 L13.3461,15.41105 L16.9131,16.93205 C17.3411,17.11505 17.5401,17.60905 17.3571,18.03605 C17.1761,18.46405 16.6811,18.66305 16.2531,18.48105 L16.2531,18.48105 L12.3461,16.81605 C12.1441,16.73005 11.9931,16.57405 11.9101,16.38805 L11.9101,16.38805 L11.8941,16.35305 L11.6371,15.78105 C11.5111,15.88905 11.3531,15.98405 11.2891,16.02805 C11.0481,16.19205 10.7991,16.33305 10.6421,16.59005 C10.5171,16.79505 10.4681,17.03905 10.4551,17.27905 C10.4161,18.00605 10.5191,18.72605 10.7451,19.41705 C11.0171,20.25105 11.4331,21.03105 11.7981,21.82605 C12.2401,22.78605 12.5891,23.78805 12.9751,24.77305 C12.9691,24.77505 14.2561,28.39405 14.2561,28.39405 C14.4341,28.89105 14.1741,29.43905 13.6771,29.61705 C13.2241,29.77905 12.7291,29.57805 12.5101,29.16505 L12.5101,29.16505 L11.3901,27.05805 L5.2421,27.05805 L3.4781,29.31905 C3.1541,29.73605 2.5531,29.81005 2.1371,29.48505 C1.7521,29.18505 1.6591,28.64805 1.9051,28.24005 L1.9051,28.24005 L4.1481,24.49505 L6.3471,24.49505 C7.6851,24.49505 8.7751,23.41305 8.7751,22.08305 L8.7751,22.08305 L8.7751,19.42905 C8.7751,18.13005 7.7351,17.07705 6.4411,17.02505 C6.50424286,16.6615738 6.68141293,15.3334536 6.86226532,13.9446687 L6.92606879,13.4534624 C6.9472678,13.2898686 6.9683381,13.1269071 6.9891,12.96605 L6.9891,12.96605 L5.3171,14.00505 L4.6821,17.01605 L2.9601,17.01605 L3.7441,13.30805 C3.8241,12.92505 4.1571,12.74405 4.4431,12.52305 C5.1201,12.00205 7.2561,10.27805 7.7261,10.04705 C8.1371,9.84605 8.5961,9.77005 9.0471,9.71505 Z M6.347,18.28995 C6.981,18.28995 7.501,18.80195 7.501,19.42895 L7.501,19.42895 L7.501,22.08295 C7.501,22.70895 6.981,23.22095 6.347,23.22095 L6.347,23.22095 L1.154,23.22095 C0.52,23.22095 0,22.70895 0,22.08295 L0,22.08295 L0,19.42895 C0,18.80195 0.52,18.28995 1.154,18.28995 L1.154,18.28995 Z M4.375,18.92895 L3.125,18.92895 L3.125,20.12095 L1.875,20.12095 L1.875,21.35295 L3.125,21.35295 L3.125,22.58195 L4.375,22.58195 L4.375,21.35295 L5.626,21.35295 L5.626,20.12095 L4.375,20.12095 L4.375,18.92895 Z M10.7002,4.27055 C11.9592,4.27055 12.9802,5.30955 12.9802,6.58955 C12.9802,7.86955 11.9592,8.90855 10.7002,8.90855 C9.4412,8.90855 8.4212,7.86955 8.4212,6.58955 C8.4212,5.30955 9.4412,4.27055 10.7002,4.27055 Z" id="path-3"></path>
    </defs>
    <g id="icon/03-forms/disease-tb-referral-follow-up" stroke="none" stroke-width="1" fill="none" fill-rule="evenodd">
        <mask id="mask-2" fill="white">
            <use xlink:href="#path-1"></use>
        </mask>
        <use id="tb" fill="#983916" xlink:href="#path-1"></use>
        <mask id="mask-4" fill="white">
            <use xlink:href="#path-3"></use>
        </mask>
        <use id="follow-up" fill="#983916" xlink:href="#path-3"></use>
    </g>
</svg>