<?xml version="1.0" encoding="UTF-8"?>
<svg width="30px" height="30px" viewBox="0 0 30 30" version="1.1" xmlns="http://www.w3.org/2000/svg" xmlns:xlink="http://www.w3.org/1999/xlink">
    <title>icon/03 forms/disease-tb-treatment-follow-up</title>
    <defs>
        <path d="M29.5462357,7.97459155 C28.9342716,6.01590177 27.0600369,4.09346484 25.762451,4.09346484 C25.5626672,4.09346484 25.3981987,4.16027367 25.2750995,4.29181973 C24.942631,4.64657978 24.9935859,5.39338852 25.0475679,6.18421858 C25.0521085,6.24947372 25.0369733,6.64929088 25.0314238,7.07241345 C24.5581985,6.52810277 24.0118199,5.66839229 24.0118199,4.59686158 L24.0118199,2.54753967 C24.0118199,2.52009108 24.0012253,2.49626778 23.9966848,2.46985499 L23.9966848,0.51789788 C23.9966848,0.23201825 23.7711712,2.03392858e-13 23.4921802,2.03392858e-13 C23.2131891,2.03392858e-13 22.9876756,0.23201825 22.9876756,0.51789788 L22.9876756,4.59686158 C22.9881801,5.70982412 22.4155673,6.57264199 21.9519276,7.09105777 C21.9529366,6.66120253 21.9478915,6.24999161 21.9524321,6.18370068 C22.0069186,5.39338852 22.057369,4.64657978 21.7249005,4.29130183 C21.6018013,4.16027367 21.4378373,4.09346484 21.2370445,4.09346484 C19.9399631,4.09346484 18.0657284,6.01590177 17.4537643,7.97459155 C16.7792416,10.1342257 16.9144489,12.7019634 17.4810076,13.470006 C17.6348815,13.6787188 17.796323,13.7222222 17.9047914,13.7222222 C18.1666293,13.7222222 18.287206,13.6300364 18.4854763,13.4772565 C18.5783051,13.4057866 18.6933322,13.3172261 18.8598187,13.2074317 C19.2018728,12.9811104 19.6130441,12.8174546 20.0105938,12.6594958 C20.8304138,12.3332201 21.6048284,12.0250709 21.6048284,11.2218113 C21.6048284,11.1187496 21.5927203,10.9934183 21.5785941,10.847889 C21.5599275,10.6547131 21.5362157,10.4144085 21.5362157,10.1575311 C21.5362157,9.94571088 21.6285401,9.53501786 21.7168284,9.13779019 C21.7647563,8.92493416 21.8091527,8.7214003 21.8429546,8.54013604 C21.8787744,8.525117 21.9145942,8.51113376 21.947387,8.48731045 C22.004396,8.44743232 22.9160359,7.78555883 23.5037838,6.6202886 C24.1127209,7.81818639 25.0672436,8.52252751 25.1257662,8.56447724 C25.1383788,8.5727636 25.1514959,8.57638889 25.1641085,8.58363946 C25.1969013,8.75402786 25.2387752,8.94254269 25.2826671,9.13779019 C25.3714599,9.53501786 25.4632798,9.94571088 25.4632798,10.1575311 C25.4632798,10.4144085 25.4400725,10.6547131 25.4209014,10.847889 C25.4072797,10.9934183 25.3946671,11.1187496 25.3946671,11.2218113 C25.3946671,12.0255888 26.1695862,12.3332201 26.9899107,12.6594958 C27.3869559,12.8174546 27.7981272,12.9811104 28.1401813,13.2074317 C28.3066678,13.3172261 28.4216949,13.4057866 28.5145237,13.4772565 C28.7132985,13.6300364 28.8333707,13.7222222 29.0952086,13.7222222 C29.2041816,13.7222222 29.365623,13.6787188 29.5189924,13.470006 C30.0855511,12.7019634 30.2207584,10.1342257 29.5462357,7.97459155 M27.6242867,6.30611651 C27.6242867,6.64262827 27.3585612,6.91540813 27.0307519,6.91540813 C26.7029426,6.91540813 26.437217,6.64262827 26.437217,6.30611651 C26.437217,5.96960475 26.7029426,5.69682489 27.0307519,5.69682489 C27.3585612,5.69682489 27.6242867,5.96960475 27.6242867,6.30611651 Z M27.0307519,10.8758037 C27.3585612,10.8758037 27.6242867,10.6030238 27.6242867,10.2665121 C27.6242867,9.9300003 27.3585612,9.65722044 27.0307519,9.65722044 C26.7029426,9.65722044 26.437217,9.9300003 26.437217,10.2665121 C26.437217,10.6030238 26.7029426,10.8758037 27.0307519,10.8758037 Z M29.1081239,9.35257463 C29.1081239,9.68908639 28.8423983,9.96186625 28.514589,9.96186625 C28.1867797,9.96186625 27.9210542,9.68908639 27.9210542,9.35257463 C27.9210542,9.01606286 28.1867797,8.743283 28.514589,8.743283 C28.8423983,8.743283 29.1081239,9.01606286 29.1081239,9.35257463 Z M26.7339845,9.04792882 C27.2256984,9.04792882 27.6242867,8.63875903 27.6242867,8.13399138 C27.6242867,7.62922374 27.2256984,7.22005395 26.7339845,7.22005395 C26.2422705,7.22005395 25.8436822,7.62922374 25.8436822,8.13399138 C25.8436822,8.63875903 26.2422705,9.04792882 26.7339845,9.04792882 Z" id="path-1"></path>
        <path d="M19.1381994,24.5875336 C20.1409928,24.1436616 21.3132504,24.6085223 21.7524583,25.6245308 L21.7524583,25.6245308 L21.7835527,25.6976025 C22.2212059,26.7120563 21.7617866,27.8998611 20.7589933,28.3437332 L20.7589933,28.3437332 L17.0719787,29.9746327 C16.8146728,30.0889045 16.5457066,30.1425423 16.2806271,30.1425423 C15.5141509,30.1425423 14.7842107,29.6924514 14.4584972,28.938413 L14.4584972,28.938413 L14.4266254,28.8653412 C13.9881949,27.8501101 14.4476141,26.6630826 15.4504075,26.2184332 L15.4504075,26.2184332 Z M9.9917136,14.6319724 L9.9917136,16.6919742 L10.1168684,16.6919742 C11.2665827,16.6919742 12.2071873,17.6442392 12.2071873,18.8079459 L12.2071873,18.8079459 L12.2071873,27.1902099 C12.2071873,28.3539166 11.2665827,29.3069589 10.1168684,29.3069589 L10.1168684,29.3069589 L3.09031883,29.3069589 C1.94138196,29.3069589 1,28.3539166 1,27.1902099 L1,27.1902099 L1,18.8079459 C1,17.6442392 1.94138196,16.6919742 3.09031883,16.6919742 L3.09031883,16.6919742 L3.21547366,16.6919742 L3.21547366,14.6319724 L9.9917136,14.6319724 Z M17.5889226,26.4104409 L15.8639626,27.174585 C15.3804452,27.3875814 15.1596752,27.9597178 15.3711168,28.4478993 L15.3711168,28.4478993 L15.4022112,28.5201937 C15.6128756,29.0091526 16.1780157,29.2322547 16.6599784,29.0192583 L16.6599784,29.0192583 L18.3864931,28.2558916 L17.5889226,26.4104409 Z M8.78525216,19.1212216 L2.53839381,19.1212216 L2.53839381,27.0619456 L8.78525216,27.0619456 C9.38070929,27.0619456 9.86344934,26.5737641 9.86344934,25.9720881 L9.86344934,25.9720881 L9.86344934,20.2118566 C9.86344934,19.6094032 9.38070929,19.1212216 8.78525216,19.1212216 L8.78525216,19.1212216 Z M6.91414862,20.674774 L6.91414862,22.2730244 L8.51239909,22.2730244 L8.51239909,23.8277428 L6.91414862,23.8277428 L6.91414862,25.4259932 L5.35943027,25.4259932 L5.35943027,23.8277428 L3.76040244,23.8277428 L3.76040244,22.2730244 L5.35943027,22.2730244 L5.35943027,20.674774 L6.91414862,20.674774 Z M17.0228496,18.5354038 C17.7776654,17.7331691 19.0362099,17.7020747 19.8291163,18.4654414 L19.8291163,18.4654414 L19.8866408,18.5206339 C20.2691016,18.8891022 20.4867621,19.3889441 20.4999772,19.9268767 C20.512415,20.4655866 20.3188525,20.9747569 19.9550484,21.3618817 L19.9550484,21.3618817 L17.1798762,24.3119598 C16.8152947,24.6990847 16.3232264,24.9198547 15.7907353,24.9330698 L15.7907353,24.9330698 L15.7409843,24.9338472 C15.2271499,24.9338472 14.7436325,24.73873 14.3736096,24.3819221 L14.3736096,24.3819221 L14.3168623,24.3259523 C13.9336243,23.9582614 13.7159637,23.4584194 13.7035259,22.9204869 C13.6903108,22.381777 13.8838733,21.8726067 14.2484547,21.4854818 L14.2484547,21.4854818 Z M18.436866,18.9544004 C18.1811148,18.9613966 17.9447976,19.0678948 17.7683371,19.254461 L17.7683371,19.254461 L16.4693699,20.6350509 L17.9105938,22.0241918 L19.209561,20.6428245 C19.3844668,20.4562583 19.4777499,20.2106128 19.471531,19.9517522 C19.4660895,19.6936689 19.3603687,19.4542423 19.1761345,19.2754497 L19.1761345,19.2754497 L19.11861,19.2210346 C18.9343758,19.0430193 18.698836,18.9466268 18.436866,18.9544004 Z M10.0433303,10 C10.406357,10 10.7888177,10.3785739 10.7888177,10.8317743 L10.7888177,10.8317743 L10.7888177,13.4662446 L2.41821408,13.4662446 L2.41821408,10.8317743 C2.41821408,10.3785739 2.77813138,10 3.14115812,10 L3.14115812,10 Z" id="path-3"></path>
    </defs>
    <g id="icon/03-forms/disease-tb-treatment-follow-up" stroke="none" stroke-width="1" fill="none" fill-rule="evenodd">
        <mask id="mask-2" fill="white">
            <use xlink:href="#path-1"></use>
        </mask>
        <use id="tb" fill="#983916" xlink:href="#path-1"></use>
        <mask id="mask-4" fill="white">
            <use xlink:href="#path-3"></use>
        </mask>
        <use id="medicine" fill="#983916" xlink:href="#path-3"></use>
    </g>
</svg>