<?xml version="1.0" encoding="UTF-8"?>
<svg width="30px" height="30px" viewBox="0 0 30 30" version="1.1" xmlns="http://www.w3.org/2000/svg" xmlns:xlink="http://www.w3.org/1999/xlink">
    <title>icon/03 forms/disease-tb-diagnostic-follow-up</title>
    <defs>
        <path d="M29.5462357,7.97459155 C28.9342716,6.01590177 27.0600369,4.09346484 25.762451,4.09346484 C25.5626672,4.09346484 25.3981987,4.16027367 25.2750995,4.29181973 C24.942631,4.64657978 24.9935859,5.39338852 25.0475679,6.18421858 C25.0521085,6.24947372 25.0369733,6.64929088 25.0314238,7.07241345 C24.5581985,6.52810277 24.0118199,5.66839229 24.0118199,4.59686158 L24.0118199,2.54753967 C24.0118199,2.52009108 24.0012253,2.49626778 23.9966848,2.46985499 L23.9966848,0.51789788 C23.9966848,0.23201825 23.7711712,2.03392858e-13 23.4921802,2.03392858e-13 C23.2131891,2.03392858e-13 22.9876756,0.23201825 22.9876756,0.51789788 L22.9876756,4.59686158 C22.9881801,5.70982412 22.4155673,6.57264199 21.9519276,7.09105777 C21.9529366,6.66120253 21.9478915,6.24999161 21.9524321,6.18370068 C22.0069186,5.39338852 22.057369,4.64657978 21.7249005,4.29130183 C21.6018013,4.16027367 21.4378373,4.09346484 21.2370445,4.09346484 C19.9399631,4.09346484 18.0657284,6.01590177 17.4537643,7.97459155 C16.7792416,10.1342257 16.9144489,12.7019634 17.4810076,13.470006 C17.6348815,13.6787188 17.796323,13.7222222 17.9047914,13.7222222 C18.1666293,13.7222222 18.287206,13.6300364 18.4854763,13.4772565 C18.5783051,13.4057866 18.6933322,13.3172261 18.8598187,13.2074317 C19.2018728,12.9811104 19.6130441,12.8174546 20.0105938,12.6594958 C20.8304138,12.3332201 21.6048284,12.0250709 21.6048284,11.2218113 C21.6048284,11.1187496 21.5927203,10.9934183 21.5785941,10.847889 C21.5599275,10.6547131 21.5362157,10.4144085 21.5362157,10.1575311 C21.5362157,9.94571088 21.6285401,9.53501786 21.7168284,9.13779019 C21.7647563,8.92493416 21.8091527,8.7214003 21.8429546,8.54013604 C21.8787744,8.525117 21.9145942,8.51113376 21.947387,8.48731045 C22.004396,8.44743232 22.9160359,7.78555883 23.5037838,6.6202886 C24.1127209,7.81818639 25.0672436,8.52252751 25.1257662,8.56447724 C25.1383788,8.5727636 25.1514959,8.57638889 25.1641085,8.58363946 C25.1969013,8.75402786 25.2387752,8.94254269 25.2826671,9.13779019 C25.3714599,9.53501786 25.4632798,9.94571088 25.4632798,10.1575311 C25.4632798,10.4144085 25.4400725,10.6547131 25.4209014,10.847889 C25.4072797,10.9934183 25.3946671,11.1187496 25.3946671,11.2218113 C25.3946671,12.0255888 26.1695862,12.3332201 26.9899107,12.6594958 C27.3869559,12.8174546 27.7981272,12.9811104 28.1401813,13.2074317 C28.3066678,13.3172261 28.4216949,13.4057866 28.5145237,13.4772565 C28.7132985,13.6300364 28.8333707,13.7222222 29.0952086,13.7222222 C29.2041816,13.7222222 29.365623,13.6787188 29.5189924,13.470006 C30.0855511,12.7019634 30.2207584,10.1342257 29.5462357,7.97459155 M27.6242867,6.30611651 C27.6242867,6.64262827 27.3585612,6.91540813 27.0307519,6.91540813 C26.7029426,6.91540813 26.437217,6.64262827 26.437217,6.30611651 C26.437217,5.96960475 26.7029426,5.69682489 27.0307519,5.69682489 C27.3585612,5.69682489 27.6242867,5.96960475 27.6242867,6.30611651 Z M27.0307519,10.8758037 C27.3585612,10.8758037 27.6242867,10.6030238 27.6242867,10.2665121 C27.6242867,9.9300003 27.3585612,9.65722044 27.0307519,9.65722044 C26.7029426,9.65722044 26.437217,9.9300003 26.437217,10.2665121 C26.437217,10.6030238 26.7029426,10.8758037 27.0307519,10.8758037 Z M29.1081239,9.35257463 C29.1081239,9.68908639 28.8423983,9.96186625 28.514589,9.96186625 C28.1867797,9.96186625 27.9210542,9.68908639 27.9210542,9.35257463 C27.9210542,9.01606286 28.1867797,8.743283 28.514589,8.743283 C28.8423983,8.743283 29.1081239,9.01606286 29.1081239,9.35257463 Z M26.7339845,9.04792882 C27.2256984,9.04792882 27.6242867,8.63875903 27.6242867,8.13399138 C27.6242867,7.62922374 27.2256984,7.22005395 26.7339845,7.22005395 C26.2422705,7.22005395 25.8436822,7.62922374 25.8436822,8.13399138 C25.8436822,8.63875903 26.2422705,9.04792882 26.7339845,9.04792882 Z" id="path-1"></path>
        <path d="M2.47631926,10.1480864 L2.47631926,10.2105409 C2.47631926,11.3841642 3.48426483,12.339197 4.72294493,12.339197 L4.72294493,12.339197 L10.2779221,12.339197 C11.5166022,12.339197 12.5245477,11.3841642 12.5245477,10.2105409 L12.5245477,10.2105409 L12.5245477,10.1480864 L13.1681756,10.1480864 C14.8145446,10.1480864 15.000867,11.3442628 15,12.81281 L15,12.81281 L15,26.7323475 C15,28.2017621 14.8145446,29.3970711 13.1681756,29.3970711 L13.1681756,29.3970711 L1.83269137,29.3979385 C0.185455018,29.3979385 5.32907052e-14,28.2026295 5.32907052e-14,26.7323475 L0.000767790989,12.65655 C0.015111304,11.2603473 0.244284887,10.1480864 1.83269137,10.1480864 L1.83269137,10.1480864 L2.47631926,10.1480864 Z M11.1436103,25.9464622 L3.85638932,25.9464622 C3.49727618,25.9464622 3.20582204,26.2379164 3.20582204,26.5970295 C3.20582204,26.9561426 3.49727618,27.2475968 3.85638932,27.2475968 L3.85638932,27.2475968 L11.1436103,27.2475968 C11.5027234,27.2475968 11.7941775,26.9561426 11.7941775,26.5970295 C11.7941775,26.2379164 11.5027234,25.9464622 11.1436103,25.9464622 L11.1436103,25.9464622 Z M11.1436103,23.4925224 L3.85638932,23.4925224 C3.49727618,23.4925224 3.20582204,23.7839766 3.20582204,24.1430897 C3.20582204,24.5022029 3.49727618,24.793657 3.85638932,24.793657 L3.85638932,24.793657 L11.1436103,24.793657 C11.5027234,24.793657 11.7941775,24.5022029 11.7941775,24.1430897 C11.7941775,23.7839766 11.5027234,23.4925224 11.1436103,23.4925224 L11.1436103,23.4925224 Z M7.5004335,13.8754032 C5.23212226,13.8754032 3.39318541,15.681378 3.39318541,17.9089203 C3.39318541,20.1364627 5.23212226,21.9433049 7.5004335,21.9433049 C9.76874475,21.9433049 11.6068142,20.1364627 11.6068142,17.9089203 C11.6068142,15.681378 9.76874475,13.8754032 7.5004335,13.8754032 Z M8.36768306,15.2581623 L8.36768306,17.041584 L10.1511048,17.041584 L10.1511048,18.7764301 L8.36768306,18.7764301 L8.36768306,20.5607193 L6.63283698,20.5607193 L6.63283698,18.7764301 L4.84854779,18.7764301 L4.84854779,17.041584 L6.63283698,17.041584 L6.63283698,15.2581623 L8.36768306,15.2581623 Z M10.2775751,8 C10.7988964,8 11.2230662,8.37038964 11.2230662,8.82665416 L11.2230662,8.82665416 L11.2230662,10.2101939 C11.2230662,10.6664584 10.7988964,11.0377155 10.2775751,11.0377155 L10.2775751,11.0377155 L4.72259796,11.0377155 C4.20040929,11.0377155 3.77710685,10.6673258 3.77710685,10.2101939 L3.77710685,10.2101939 L3.77710685,8.82665416 C3.77710685,8.37038964 4.20040929,8 4.72259796,8 L4.72259796,8 Z" id="path-3"></path>
    </defs>
    <g id="icon/03-forms/disease-tb-diagnostic-follow-up" stroke="none" stroke-width="1" fill="none" fill-rule="evenodd">
        <mask id="mask-2" fill="white">
            <use xlink:href="#path-1"></use>
        </mask>
        <use id="tb" fill="#983916" xlink:href="#path-1"></use>
        <mask id="mask-4" fill="white">
            <use xlink:href="#path-3"></use>
        </mask>
        <use id="diagnosis" fill="#983916" xlink:href="#path-3"></use>
    </g>
</svg>